<svg width="15" height="15" viewBox="0 0 15 15" fill="none" xmlns="http://www.w3.org/2000/svg">
<g id="Crosshair">
<path id="Vector" opacity="0.2" d="M9.375 7.5C9.375 7.87084 9.26503 8.23335 9.05901 8.54169C8.85298 8.85004 8.56014 9.09036 8.21753 9.23227C7.87492 9.37419 7.49792 9.41132 7.13421 9.33897C6.77049 9.26662 6.4364 9.08805 6.17418 8.82582C5.91195 8.5636 5.73338 8.22951 5.66103 7.86579C5.58868 7.50208 5.62581 7.12508 5.76773 6.78247C5.90964 6.43986 6.14996 6.14702 6.45831 5.94099C6.76665 5.73497 7.12916 5.625 7.5 5.625C7.99728 5.625 8.4742 5.82254 8.82583 6.17417C9.17746 6.52581 9.375 7.00272 9.375 7.5Z" fill="#207CFD"/>
<path id="Vector_2" d="M13.5938 7.03125H13.1051C12.9926 5.70671 12.4153 4.46461 11.4754 3.52465C10.5354 2.58468 9.29329 2.00741 7.96875 1.89492V1.40625C7.96875 1.28193 7.91936 1.1627 7.83146 1.07479C7.74355 0.986886 7.62432 0.9375 7.5 0.9375C7.37568 0.9375 7.25645 0.986886 7.16854 1.07479C7.08064 1.1627 7.03125 1.28193 7.03125 1.40625V1.89492C5.70671 2.00741 4.46461 2.58468 3.52465 3.52465C2.58468 4.46461 2.00741 5.70671 1.89492 7.03125H1.40625C1.28193 7.03125 1.1627 7.08064 1.07479 7.16854C0.986886 7.25645 0.9375 7.37568 0.9375 7.5C0.9375 7.62432 0.986886 7.74355 1.07479 7.83146C1.1627 7.91936 1.28193 7.96875 1.40625 7.96875H1.89492C2.00741 9.29329 2.58468 10.5354 3.52465 11.4754C4.46461 12.4153 5.70671 12.9926 7.03125 13.1051V13.5938C7.03125 13.7181 7.08064 13.8373 7.16854 13.9252C7.25645 14.0131 7.37568 14.0625 7.5 14.0625C7.62432 14.0625 7.74355 14.0131 7.83146 13.9252C7.91936 13.8373 7.96875 13.7181 7.96875 13.5938V13.1051C9.29329 12.9926 10.5354 12.4153 11.4754 11.4754C12.4153 10.5354 12.9926 9.29329 13.1051 7.96875H13.5938C13.7181 7.96875 13.8373 7.91936 13.9252 7.83146C14.0131 7.74355 14.0625 7.62432 14.0625 7.5C14.0625 7.37568 14.0131 7.25645 13.9252 7.16854C13.8373 7.08064 13.7181 7.03125 13.5938 7.03125ZM7.96875 12.1641V11.7188C7.96875 11.5944 7.91936 11.4752 7.83146 11.3873C7.74355 11.2994 7.62432 11.25 7.5 11.25C7.37568 11.25 7.25645 11.2994 7.16854 11.3873C7.08064 11.4752 7.03125 11.5944 7.03125 11.7188V12.1641C5.95598 12.0543 4.95147 11.5771 4.18719 10.8128C3.42291 10.0485 2.94565 9.04402 2.83594 7.96875H3.28125C3.40557 7.96875 3.5248 7.91936 3.61271 7.83146C3.70061 7.74355 3.75 7.62432 3.75 7.5C3.75 7.37568 3.70061 7.25645 3.61271 7.16854C3.5248 7.08064 3.40557 7.03125 3.28125 7.03125H2.83594C2.94565 5.95598 3.42291 4.95147 4.18719 4.18719C4.95147 3.42291 5.95598 2.94565 7.03125 2.83594V3.28125C7.03125 3.40557 7.08064 3.5248 7.16854 3.61271C7.25645 3.70061 7.37568 3.75 7.5 3.75C7.62432 3.75 7.74355 3.70061 7.83146 3.61271C7.91936 3.5248 7.96875 3.40557 7.96875 3.28125V2.83594C9.04402 2.94565 10.0485 3.42291 10.8128 4.18719C11.5771 4.95147 12.0543 5.95598 12.1641 7.03125H11.7188C11.5944 7.03125 11.4752 7.08064 11.3873 7.16854C11.2994 7.25645 11.25 7.37568 11.25 7.5C11.25 7.62432 11.2994 7.74355 11.3873 7.83146C11.4752 7.91936 11.5944 7.96875 11.7188 7.96875H12.1641C12.0543 9.04402 11.5771 10.0485 10.8128 10.8128C10.0485 11.5771 9.04402 12.0543 7.96875 12.1641ZM7.5 5.15625C7.03645 5.15625 6.58331 5.29371 6.19788 5.55124C5.81245 5.80878 5.51205 6.17482 5.33466 6.60309C5.15726 7.03135 5.11085 7.5026 5.20128 7.95724C5.29172 8.41189 5.51494 8.8295 5.84272 9.15728C6.1705 9.48506 6.58811 9.70828 7.04276 9.79872C7.4974 9.88915 7.96865 9.84274 8.39691 9.66534C8.82518 9.48795 9.19122 9.18755 9.44876 8.80212C9.70629 8.41669 9.84375 7.96355 9.84375 7.5C9.84375 6.8784 9.59682 6.28226 9.15728 5.84272C8.71774 5.40318 8.1216 5.15625 7.5 5.15625ZM7.5 8.90625C7.22187 8.90625 6.94999 8.82378 6.71873 8.66925C6.48747 8.51473 6.30723 8.29511 6.20079 8.03815C6.09436 7.78119 6.06651 7.49844 6.12077 7.22565C6.17503 6.95287 6.30896 6.7023 6.50563 6.50563C6.7023 6.30896 6.95287 6.17503 7.22565 6.12077C7.49844 6.06651 7.78119 6.09436 8.03815 6.20079C8.29511 6.30723 8.51473 6.48747 8.66925 6.71873C8.82378 6.94999 8.90625 7.22187 8.90625 7.5C8.90625 7.87296 8.75809 8.23065 8.49437 8.49437C8.23065 8.75809 7.87296 8.90625 7.5 8.90625Z" fill="#081023"/>
</g>
</svg>
