<svg width="15" height="16" viewBox="0 0 15 16" fill="none" xmlns="http://www.w3.org/2000/svg">
<path opacity="0.2" d="M12.6562 3V7C11.4908 8.07688 10.4162 8.14938 9.375 7.8425V3.8425C10.4156 4.14937 11.4908 4.07687 12.6562 3ZM5.625 6.1575V2.1575C4.58437 1.85062 3.50918 1.92312 2.34375 3V7C3.50918 5.92375 4.58379 5.85062 5.625 6.1575V9.6575C6.8918 10.0325 8.1082 10.97 9.375 11.345V7.845C8.1082 7.47 6.8918 6.5325 5.625 6.1575Z" fill="#207CFD"/>
<path d="M12.8508 2.54688C12.769 2.50724 12.6782 2.49354 12.5892 2.50739C12.5003 2.52124 12.417 2.56206 12.3492 2.625C10.7086 4.13875 9.31875 3.405 7.70801 2.55438C6.03926 1.6725 4.14727 0.674376 2.03672 2.625C1.98629 2.67163 1.94578 2.7292 1.91789 2.79387C1.89 2.85854 1.87538 2.92882 1.875 3V13.5C1.875 13.6326 1.92439 13.7598 2.01229 13.8536C2.1002 13.9473 2.21943 14 2.34375 14C2.46807 14 2.5873 13.9473 2.67521 13.8536C2.76311 13.7598 2.8125 13.6326 2.8125 13.5V10.7356C4.38223 9.41313 5.73457 10.1263 7.29199 10.9488C8.96133 11.8294 10.8527 12.8275 12.9633 10.8781C13.0137 10.8315 13.0542 10.7739 13.0821 10.7093C13.11 10.6446 13.1246 10.5743 13.125 10.5031V3C13.1247 2.90441 13.0987 2.81093 13.0501 2.73062C13.0015 2.65031 12.9323 2.58654 12.8508 2.54688ZM5.15625 9.04375C4.97351 9.01481 4.78904 8.99998 4.6043 8.99938C3.9735 9.00074 3.35465 9.18293 2.8125 9.52688V7.23625C3.63281 6.545 4.39453 6.41 5.15625 6.55625V9.04375ZM5.15625 5.54375C4.34595 5.40898 3.51697 5.5803 2.8125 6.02813V3.23625C3.63281 2.545 4.39453 2.41063 5.15625 2.55688V5.54375ZM8.90625 10.6456C8.51602 10.4788 8.11934 10.2706 7.70801 10.0531C7.19121 9.78 6.65332 9.49687 6.09375 9.2925V6.855C6.48398 7.02125 6.88066 7.23 7.29199 7.4475C7.80879 7.72063 8.34668 8.00375 8.90625 8.20813V10.6456ZM8.90625 7.14563C8.51602 6.97875 8.11934 6.77063 7.70801 6.5525C7.19121 6.28 6.65332 5.99625 6.09375 5.79188V2.85438C6.48398 3.02063 6.88066 3.22938 7.29199 3.44688C7.80879 3.71938 8.34668 4.00313 8.90625 4.2075V7.14563ZM12.1875 10.2656C11.3672 10.9569 10.6055 11.0913 9.84375 10.945V8.4575C10.0265 8.48665 10.2109 8.50169 10.3957 8.5025C11.0266 8.50042 11.6455 8.31759 12.1875 7.97313V10.2656ZM12.1875 6.76563C11.3672 7.45688 10.6055 7.59188 9.84375 7.44563V4.45875C10.654 4.59376 11.483 4.42266 12.1875 3.975V6.76563Z" fill="#081023"/>
</svg>
